# File created by Blade
# Date/Time:  Mon Sep 29 17:58:21 2014
# Frame Rate: 120.000 fps
#------------------------------------------------------
:FULLY-SPECIFIED
:DEGREES
1481
root -2.141290 4.110048 -7.107708 -26.726435 -7.364396 22.132281
Spine 30.046845 49.209609 -13.056661
Head 22.624522 33.714514 8.579024
LeftShoulder -12.926902 22.444455 13.105306
LeftArm 14.923248 17.344038 -81.347517
LeftForeArm -41.302899 -0.000000 8.337882
LeftHand -52.689319 -0.000000 71.690530
LeftHandThumb1 -26.253704 0.000000 33.147579
RightShoulder 11.738388 33.063191 -21.270704
RightArm 22.771658 -36.792673 60.406538
RightForeArm -16.188358 0.000000 16.576799
RightHand -3.533603 -0.000000 19.919326
RightHandThumb1 -24.326973 -0.000000 -32.862282
LeftUpLeg -114.017155 -20.626294 -12.487750
LeftLeg 123.489584 -0.000000 -0.000000
LeftFoot 2.178366 11.540365 -26.165646
LeftToeBase 10.485340 -0.000000 -0.000000
RightUpLeg -56.789097 13.812475 11.643242
RightLeg 8.332438 -0.000000 -0.000000
RightFoot 38.289932 0.734202 12.863571
RightToeBase 3.545020 -0.000000 -0.000000
1482
root -2.119473 4.121522 -7.167884 -26.718390 -7.298563 22.101234
Spine 30.075046 49.429727 -12.894903
Head 22.257415 33.873296 8.458369
LeftShoulder -12.927646 22.213377 13.361088
LeftArm 15.003729 17.403773 -81.657033
LeftForeArm -40.972437 0.000000 8.174646
LeftHand -52.697682 -0.000000 72.002278
LeftHandThumb1 -26.253704 0.000000 33.147579
RightShoulder 11.592445 32.942373 -21.231998
RightArm 22.353189 -37.195425 60.444958
RightForeArm -16.163240 -0.000000 16.599289
RightHand -3.398933 -0.000000 19.653818
RightHandThumb1 -24.326973 -0.000000 -32.862282
LeftUpLeg -114.019902 -20.763134 -12.218192
LeftLeg 123.236919 -0.000000 -0.000000
LeftFoot 2.445002 11.359405 -26.232151
LeftToeBase 9.966907 -0.000000 -0.000000
RightUpLeg -56.790655 13.840670 11.415765
RightLeg 8.207222 -0.000000 -0.000000
RightFoot 38.096947 0.462137 13.253437
RightToeBase 3.752376 -0.000000 -0.000000
1483
root -2.099580 4.132701 -7.225881 -26.725538 -7.221965 22.034207
Spine 30.154018 49.544135 -12.666669
Head 21.876519 34.098518 8.303006
LeftShoulder -12.967589 22.073328 13.539911
LeftArm 15.086290 17.043350 -82.077285
LeftForeArm -40.327907 0.000000 8.047791
LeftHand -52.707016 -0.000000 72.142588
LeftHandThumb1 -26.253704 0.000000 33.147579
RightShoulder 11.475188 32.911269 -21.163470
RightArm 21.923110 -37.421653 60.610903
RightForeArm -16.135805 -0.000000 16.589507
RightHand -3.440432 -0.000000 19.915681
RightHandThumb1 -24.326973 -0.000000 -32.862282
LeftUpLeg -113.984553 -20.949907 -12.016183
LeftLeg 123.029441 -0.000000 -0.000000
LeftFoot 2.575837 11.490718 -26.343325
LeftToeBase 9.448131 -0.000000 -0.000000
RightUpLeg -56.801099 13.836907 11.242031
RightLeg 8.143777 -0.000000 -0.000000
RightFoot 37.966324 0.714837 12.919518
RightToeBase 3.841281 -0.000000 -0.000000
1484
root -2.076233 4.142966 -7.281477 -26.731947 -7.128257 21.966778
Spine 30.203017 49.611355 -12.457046
Head 21.559249 34.301285 8.239983
LeftShoulder -12.927650 21.991056 13.731731
LeftArm 15.054021 15.990918 -82.741162
LeftForeArm -39.156401 -0.000000 7.967286
LeftHand -52.743180 0.000000 72.152924
LeftHandThumb1 -26.253704 0.000000 33.147579
RightShoulder 11.417727 32.895813 -21.030699
RightArm 21.494317 -37.888260 60.626349
RightForeArm -16.272713 0.000000 16.676836
RightHand -3.461615 -0.000000 19.987261
RightHandThumb1 -24.326973 -0.000000 -32.862282
LeftUpLeg -113.959189 -21.122177 -11.761913
LeftLeg 122.803969 -0.000000 -0.000000
LeftFoot 2.731140 11.384068 -26.469420
LeftToeBase 9.265596 -0.000000 -0.000000
RightUpLeg -56.807770 13.845632 11.024131
RightLeg 8.050113 -0.000000 -0.000000
RightFoot 37.816365 0.553506 13.052238
RightToeBase 3.677435 -0.000000 -0.000000
1485
root -2.053927 4.152120 -7.331563 -26.760028 -7.042102 21.933776
Spine 30.284057 49.581480 -12.325484
Head 21.035070 34.657955 8.010497
LeftShoulder -13.011278 21.938885 13.781995
LeftArm 14.954215 15.003072 -83.285931
LeftForeArm -38.321546 -0.000000 8.244533
LeftHand -52.802531 -0.000000 72.394525
LeftHandThumb1 -26.253704 0.000000 33.147579
RightShoulder 11.344186 33.042361 -20.946307
RightArm 21.244303 -39.001745 60.405047
RightForeArm -16.286483 -0.000000 16.807763
RightHand -3.271598 -0.000000 19.605266
RightHandThumb1 -24.326973 -0.000000 -32.862282
LeftUpLeg -113.956521 -21.258114 -11.467340
LeftLeg 122.566664 -0.000000 -0.000000
LeftFoot 3.043046 11.087629 -26.624712
LeftToeBase 8.891980 -0.000000 -0.000000
RightUpLeg -56.824505 13.835394 10.825501
RightLeg 8.018666 -0.000000 -0.000000
RightFoot 37.631648 0.640711 12.932868
RightToeBase 3.879909 -0.000000 -0.000000
1486
root -2.038092 4.156190 -7.378719 -26.758415 -6.995739 21.847858
Spine 30.282696 49.555612 -12.160576
Head 20.601291 34.956169 7.936804
LeftShoulder -13.046078 21.912334 13.854353
LeftArm 14.851735 14.127104 -83.805534
LeftForeArm -37.402496 -0.000000 8.318960
LeftHand -52.881785 0.000000 72.413514
LeftHandThumb1 -26.253704 0.000000 33.147579
RightShoulder 11.352574 33.042675 -20.841946
RightArm 20.784470 -38.774987 60.806561
RightForeArm -16.328715 -0.000000 16.703054
RightHand -3.315322 -0.000000 20.278428
RightHandThumb1 -24.326973 -0.000000 -32.862282
LeftUpLeg -113.986353 -21.381259 -11.174987
LeftLeg 122.390865 -0.000000 -0.000000
LeftFoot 3.226256 10.966348 -26.780706
LeftToeBase 8.589337 -0.000000 -0.000000
RightUpLeg -56.860792 13.865786 10.682290
RightLeg 7.989737 -0.000000 -0.000000
RightFoot 37.532513 0.498440 12.995554
RightToeBase 3.743236 -0.000000 -0.000000
1487
root -2.021234 4.161524 -7.420521 -26.809532 -6.928196 21.802625
Spine 30.290491 49.474972 -12.034525
Head 20.273196 35.251715 7.939508
LeftShoulder -12.935635 21.931969 13.970494
LeftArm 14.619533 13.385704 -84.305787
LeftForeArm -36.774899 -0.000000 8.593586
LeftHand -52.796445 -0.000000 72.724631
LeftHandThumb1 -26.253704 0.000000 33.147579
RightShoulder 11.417682 33.025435 -20.713099
RightArm 20.643169 -39.670566 60.545194
RightForeArm -16.364348 -0.000000 16.823839
RightHand -3.175704 -0.000000 19.963884
RightHandThumb1 -24.326973 -0.000000 -32.862282
LeftUpLeg -113.964815 -21.510043 -10.952019
LeftLeg 122.228285 -0.000000 -0.000000
LeftFoot 3.418543 10.885164 -26.939351
LeftToeBase 8.467610 -0.000000 -0.000000
RightUpLeg -56.870956 13.824787 10.592206
RightLeg 8.065975 -0.000000 -0.000000
RightFoot 37.208857 0.678248 12.565147
RightToeBase 4.273014 -0.000000 -0.000000
1488
root -2.008101 4.161869 -7.459688 -26.821816 -6.892039 21.733119
Spine 30.242648 49.397749 -11.929474
Head 19.838488 35.521597 7.909965
LeftShoulder -12.894631 21.934618 14.014082
LeftArm 14.451965 13.204964 -84.547716
LeftForeArm -36.501216 -0.000000 8.792527
LeftHand -52.758199 0.000000 73.148384
LeftHandThumb1 -26.253704 0.000000 33.147579
RightShoulder 11.467476 33.065737 -20.568590
RightArm 20.239662 -39.639068 60.831056
RightForeArm -16.349318 -0.000000 16.786651
RightHand -3.251906 -0.000000 20.355268
RightHandThumb1 -24.326973 -0.000000 -32.862282
LeftUpLeg -114.004107 -21.619207 -10.673396
LeftLeg 122.092365 -0.000000 -0.000000
LeftFoot 3.606007 10.774077 -27.053173
LeftToeBase 8.291879 -0.000000 -0.000000
RightUpLeg -56.918907 13.833142 10.497057
RightLeg 8.107151 -0.000000 -0.000000
RightFoot 37.123781 0.287050 12.963809
RightToeBase 3.962266 -0.000000 -0.000000
1489
root -1.992828 4.161379 -7.494256 -26.838447 -6.858190 21.692093
Spine 30.172101 49.269160 -11.883925
Head 19.439696 35.928198 7.905528
LeftShoulder -12.889608 21.910672 14.047369
LeftArm 14.316256 13.568467 -84.595922
LeftForeArm -36.937867 -0.000000 8.945506
LeftHand -52.806103 0.000000 73.603075
LeftHandThumb1 -26.253704 0.000000 33.147579
RightShoulder 11.429798 32.996346 -20.517119
RightArm 20.362017 -40.566531 60.466811
RightForeArm -16.413339 -0.000000 16.900304
RightHand -3.237601 -0.000000 20.592085
RightHandThumb1 -24.326973 -0.000000 -32.862282
LeftUpLeg -114.056104 -21.717273 -10.393604
LeftLeg 121.957763 -0.000000 -0.000000
LeftFoot 3.812126 10.625875 -27.266174
LeftToeBase 8.137267 -0.000000 -0.000000
RightUpLeg -56.982289 13.845760 10.367481
RightLeg 8.185424 -0.000000 -0.000000
RightFoot 36.850864 -0.170102 13.549737
RightToeBase 4.410778 -0.000000 -0.000000
1490
root -1.982004 4.160263 -7.523317 -26.904206 -6.863205 21.641629
Spine 30.179500 49.230788 -11.718331
Head 19.087279 36.175775 7.957052
LeftShoulder -12.775690 22.021463 14.094066
LeftArm 14.366676 14.191106 -84.529709
LeftForeArm -37.645094 -0.000000 8.999573
LeftHand -52.845540 0.000000 73.990496
LeftHandThumb1 -26.253704 0.000000 33.147579
RightShoulder 11.447991 32.988157 -20.427356
RightArm 19.996455 -40.270203 60.840492
RightForeArm -16.444713 -0.000000 16.832145
RightHand -3.344357 -0.000000 21.352760
RightHandThumb1 -24.326973 -0.000000 -32.862282
LeftUpLeg -114.062014 -21.788350 -10.140873
LeftLeg 121.846987 -0.000000 -0.000000
LeftFoot 4.021682 10.568826 -27.474524
LeftToeBase 7.953123 -0.000000 -0.000000
RightUpLeg -56.956973 13.845854 10.366986
RightLeg 8.219819 -0.000000 -0.000000
RightFoot 36.794382 0.007903 13.055666
RightToeBase 4.065378 -0.000000 -0.000000
1491
root -1.972978 4.154294 -7.548893 -26.943510 -6.891736 21.595875
Spine 30.122377 49.188421 -11.611827
Head 18.717225 36.477399 8.052362
LeftShoulder -12.714921 21.991566 14.175855
LeftArm 14.338337 14.953695 -84.451177
LeftForeArm -38.452354 -0.000000 8.921489
LeftHand -52.909049 -0.000000 74.375795
LeftHandThumb1 -26.253704 0.000000 33.147579
RightShoulder 11.411968 32.933880 -20.354125
RightArm 20.056560 -41.101577 60.499175
RightForeArm -16.440698 -0.000000 16.978172
RightHand -3.002571 -0.000000 20.751427
RightHandThumb1 -24.326973 -0.000000 -32.862282
LeftUpLeg -114.120314 -21.839024 -9.868111
LeftLeg 121.752409 -0.000000 -0.000000
LeftFoot 4.246156 10.569029 -27.682758
LeftToeBase 7.906937 -0.000000 -0.000000
RightUpLeg -56.956129 13.818151 10.451296
RightLeg 8.307165 -0.000000 -0.000000
RightFoot 36.647003 -0.241095 13.054632
RightToeBase 3.914438 -0.000000 -0.000000
1492
root -1.964641 4.149807 -7.569405 -26.998990 -6.909549 21.559317
Spine 30.099136 49.155777 -11.492778
Head 18.438129 36.804762 8.204687
LeftShoulder -12.640946 21.942787 14.275458
LeftArm 14.308360 15.589087 -84.424883
LeftForeArm -39.092937 0.000000 8.805166
LeftHand -53.028103 -0.000000 74.671223
LeftHandThumb1 -26.253704 0.000000 33.147579
RightShoulder 11.392987 32.935795 -20.290914
RightArm 19.875999 -41.230331 60.570588
RightForeArm -16.084846 -0.000000 17.088349
RightHand -3.020080 0.000000 21.100888
RightHandThumb1 -24.326973 -0.000000 -32.862282
LeftUpLeg -114.140428 -21.903294 -9.626165
LeftLeg 121.661985 -0.000000 -0.000000
LeftFoot 4.396167 10.629845 -28.007872
LeftToeBase 7.772660 -0.000000 -0.000000
RightUpLeg -56.933093 13.788315 10.499586
RightLeg 8.360673 -0.000000 -0.000000
RightFoot 36.442332 -0.555642 13.231717
RightToeBase 3.993025 -0.000000 -0.000000
